<svg id="Layer_1" data-name="Layer 1" xmlns="http://www.w3.org/2000/svg" viewBox="0 0 923.45 408.84"><defs><style>.cls-1{fill:#fab511;}</style></defs><path class="cls-1" d="M395.3,180.78a45.35,45.35,0,0,1,7.42,1.26,20,20,0,0,1,7.13,3.42,19,19,0,0,1,5.35,6.22,19.48,19.48,0,0,1,2.16,9.52c-.19,5.48-1.29,9.7-3.35,12.67a20.31,20.31,0,0,1-7.48,6.74h-.13a36.92,36.92,0,0,1,7.74,3.29,33.15,33.15,0,0,1,7.55,5.74,29.22,29.22,0,0,1,5.74,8.13,23.29,23.29,0,0,1,2.29,10.32c-.2,6.48-1.26,11.51-3.29,15.13a20,20,0,0,1-7.94,8.06,28.94,28.94,0,0,1-11.22,3.22q-6.28.58-12.87.58H342.12v-3.8a10.81,10.81,0,0,0,2.32-.36,12.64,12.64,0,0,0,2.78-1.09,7.79,7.79,0,0,0,2.25-1.68,3,3,0,0,0,.94-2.16V188.36a2.22,2.22,0,0,0-.81-1.64,5.8,5.8,0,0,0-2-1.2,19,19,0,0,0-2.71-.71,17.79,17.79,0,0,0-2.77-.22v-3.81Zm-27.48,39.09q6.44,0,12.23-.32c3.87-.2,7.64-.52,11.35-.94,6-.58,9.06-4.71,9.06-12.35a35.43,35.43,0,0,0-.71-7.45,31.92,31.92,0,0,0-1.74-6,15.89,15.89,0,0,0-2.42-4.22,5.65,5.65,0,0,0-2.45-2c-3.51-1.36-8.93-2-16.25-2h-9.07Zm0,51.41H376q6.14,0,12.28-.19a38.84,38.84,0,0,0,11-1.75,16.73,16.73,0,0,0,7.87-5.22c2-2.45,3-6,3-10.74A43.79,43.79,0,0,0,409,243.12a37.46,37.46,0,0,0-2.9-8,22.32,22.32,0,0,0-3.9-5.55,11.8,11.8,0,0,0-4.29-2.9,61.54,61.54,0,0,0-11.74-2.17c-4.87-.48-11-.74-18.39-.74Z"/><path class="cls-1" d="M433.62,271.54a26.36,26.36,0,0,0,3.84-.26,18.75,18.75,0,0,0,3.77-.87,11.23,11.23,0,0,0,3.22-1.71,6.06,6.06,0,0,0,2-2.58l34.67-85.34h4.68l34.64,85.34c.84,2.1,2.71,3.55,5.61,4.29a39,39,0,0,0,9.64,1.13v3.64h-45.6v-3.64a21.4,21.4,0,0,0,7-1.13q3.2-1.11,3.19-3.29a3.19,3.19,0,0,0-.26-1l-2.9-6.94a15.65,15.65,0,0,0-2.51-3.9c-1.16-1.42-3.23-2.48-6.16-3.16a53.73,53.73,0,0,0-13-1.64,47,47,0,0,0-6.35.45,56,56,0,0,0-6.13,1.19,12.85,12.85,0,0,0-5.49,3.36c-1.45,1.54-2.19,2.74-2.19,3.58l-2.9,7.06a4.45,4.45,0,0,0-.26,1.13,2.32,2.32,0,0,0,1,1.9,8.39,8.39,0,0,0,2.45,1.32,14.41,14.41,0,0,0,3.26.81,20.8,20.8,0,0,0,3.29.26v3.64H433.62Zm25.32-21.42a51,51,0,0,1,8.45-2.51,41.07,41.07,0,0,1,8.7-.91,40.61,40.61,0,0,1,8.68.91,58.26,58.26,0,0,1,8.71,2.51c-3-7.38-5.9-14.51-8.65-21.32s-5.58-13.9-8.61-21.28Z"/><path class="cls-1" d="M625.93,184.59a17.89,17.89,0,0,0-5.93.93c-1.84.61-2.77,1.58-2.77,2.84V266a3.18,3.18,0,0,0,.93,2.23,9.55,9.55,0,0,0,2.29,1.61,11.63,11.63,0,0,0,2.81,1.09,12.48,12.48,0,0,0,2.67.36v3.8H615.58a21.36,21.36,0,0,1-6.74-1,24.44,24.44,0,0,1-5.42-2.45,22.67,22.67,0,0,1-4-3.09,13.33,13.33,0,0,1-2.39-2.91l-42.73-66.15V266a3.18,3.18,0,0,0,.93,2.23,10,10,0,0,0,2.26,1.61,12.3,12.3,0,0,0,2.9,1.09,13.41,13.41,0,0,0,2.71.36v3.8h-22.8v-3.8a10.81,10.81,0,0,0,2.32-.36,11.83,11.83,0,0,0,2.77-1.09,7.85,7.85,0,0,0,2.29-1.68,3.17,3.17,0,0,0,.94-2.16V188.36a2.33,2.33,0,0,0-.81-1.64,5.58,5.58,0,0,0-2-1.2,19,19,0,0,0-2.71-.71,17.52,17.52,0,0,0-2.77-.22v-3.81h12a17.1,17.1,0,0,1,4.49.65,24.37,24.37,0,0,1,8.64,4.41,15.06,15.06,0,0,1,3,3.13l43.12,65.31V188.36a2.22,2.22,0,0,0-.81-1.64,5.6,5.6,0,0,0-2.09-1.2,21.64,21.64,0,0,0-2.78-.71,17.52,17.52,0,0,0-2.77-.22v-3.81h22.83Z"/><path class="cls-1" d="M630.74,271.28a10.72,10.72,0,0,0,2.32-.36,12.64,12.64,0,0,0,2.78-1.09,7.79,7.79,0,0,0,2.25-1.68A3,3,0,0,0,639,266V188.36a2.22,2.22,0,0,0-.81-1.64,5.8,5.8,0,0,0-2-1.2,19,19,0,0,0-2.71-.71,17.79,17.79,0,0,0-2.77-.22v-3.81h42a33.25,33.25,0,0,1,16.06,4.29,43.07,43.07,0,0,1,12.81,11A53.18,53.18,0,0,1,710,211.81a56.16,56.16,0,0,1,3,18.12A55.21,55.21,0,0,1,710,249.06a38.89,38.89,0,0,1-8.84,14.16,38.36,38.36,0,0,1-13.86,8.9,50.59,50.59,0,0,1-18.1,3.06c-2.16,0-4.64,0-7.42-.16s-5.38-.19-7.8-.19c-3.87,0-19.25.25-23.19.25Zm33.9-86.69a16.13,16.13,0,0,0-5.55.93c-1.77.61-2.64,1.58-2.64,2.84V266a3.18,3.18,0,0,0,.93,2.23,10,10,0,0,0,2.26,1.61,13.13,13.13,0,0,0,2.71,1.09,10.24,10.24,0,0,0,2.29.36A63.1,63.1,0,0,0,678.8,270a21.19,21.19,0,0,0,9.35-4.45,17.91,17.91,0,0,0,5.16-8.52,49.74,49.74,0,0,0,1.58-13.54c0-2.2-.07-4.55-.19-7.07s-.42-5.16-.84-7.93c-.42-3-.91-6.23-1.42-9.52s-1.29-6.61-2.16-9.83a62.29,62.29,0,0,0-3.32-9.32,29.22,29.22,0,0,0-5.13-7.84,24.09,24.09,0,0,0-7.29-5.35A22.65,22.65,0,0,0,664.64,184.59Z"/><path class="cls-1" d="M716.69,271.54a26.36,26.36,0,0,0,3.84-.26,18.59,18.59,0,0,0,3.77-.87,11.43,11.43,0,0,0,3.23-1.71,6.22,6.22,0,0,0,2-2.58l34.67-85.34h4.67l34.64,85.34c.84,2.1,2.71,3.55,5.61,4.29a39.13,39.13,0,0,0,9.65,1.13v3.64H773.16v-3.64a21.4,21.4,0,0,0,7-1.13q3.2-1.11,3.2-3.29a3.52,3.52,0,0,0-.26-1l-2.91-6.94a15.65,15.65,0,0,0-2.51-3.9c-1.16-1.42-3.23-2.48-6.16-3.16a53.73,53.73,0,0,0-13-1.64,47.21,47.21,0,0,0-6.35.45,56.91,56.91,0,0,0-6.13,1.19,12.76,12.76,0,0,0-5.48,3.36c-1.45,1.54-2.2,2.74-2.2,3.58l-2.9,7.06a4.45,4.45,0,0,0-.26,1.13,2.35,2.35,0,0,0,1,1.9,8.39,8.39,0,0,0,2.45,1.32,14.41,14.41,0,0,0,3.26.81,20.8,20.8,0,0,0,3.29.26v3.64H716.69ZM742,250.12a51,51,0,0,1,8.45-2.51,41.09,41.09,0,0,1,8.71-.91,40.58,40.58,0,0,1,8.67.91,57.92,57.92,0,0,1,8.71,2.51c-3-7.38-5.9-14.51-8.64-21.32s-5.58-13.9-8.61-21.28Z"/><path class="cls-1" d="M905,252.77a47.11,47.11,0,0,1-1.13,11.35,18.59,18.59,0,0,1-3.2,7.16,11,11,0,0,1-5.12,3.74,20.78,20.78,0,0,1-6.94,1.06,19.22,19.22,0,0,1-8.19-1.64,19.71,19.71,0,0,1-6-4.29,20.41,20.41,0,0,1-4-6,27.46,27.46,0,0,1-2-6.77l-3-14.74c-.9-5-3.87-7.54-8.8-7.54h-8.32v7c0,2.71,0,5.55-.07,8.42s-.06,5.74-.06,8.45v7a3.18,3.18,0,0,0,.93,2.23,9.55,9.55,0,0,0,2.29,1.61,11.91,11.91,0,0,0,2.78,1.09,10.81,10.81,0,0,0,2.32.36v3.8H822.7v-3.8a10.72,10.72,0,0,0,2.32-.36,12.45,12.45,0,0,0,2.78-1.09,8,8,0,0,0,2.26-1.68A3.07,3.07,0,0,0,831,266V188.36a2.22,2.22,0,0,0-.81-1.64,5.76,5.76,0,0,0-2-1.2,19.34,19.34,0,0,0-2.71-.71,18,18,0,0,0-2.78-.22v-3.81h48.38a39.39,39.39,0,0,1,7.84,1.52,58.4,58.4,0,0,1,8.8,3.42,16.72,16.72,0,0,1,7.39,7.19,25.06,25.06,0,0,1,2.58,12c0,5.81-.71,10.58-2.16,14.36a24,24,0,0,1-5.71,9.09,21.76,21.76,0,0,1-8.26,4.9,38,38,0,0,1-9.71,1.78,24.21,24.21,0,0,1,6.1,5.61,33.15,33.15,0,0,1,3.77,6.29c1,2.16,1.81,4.19,2.55,6.19a42.89,42.89,0,0,0,2.26,5.29,11,11,0,0,0,3,3.71,7.19,7.19,0,0,0,4.64,1.38c1.93,0,3.45-1.06,4.48-3.22a17.1,17.1,0,0,0,1.58-7.74Zm-56.57-21.68h14.22q9.58,0,13.93-4.93t4.36-14c0-7.13-.78-12.8-2.33-17.06s-3.19-6.84-4.87-7.74c-3.61-1.87-9-2.77-16.25-2.77h-9.06Z"/><path class="cls-1" d="M409.07,87.7h-4.28a53.94,53.94,0,0,0-4.17-8.41,20.84,20.84,0,0,0-4.87-5.49,16.72,16.72,0,0,0-6.28-3,35.81,35.81,0,0,0-8.52-.91,34,34,0,0,0-9,1.39,22.72,22.72,0,0,0-7.06,3.48A16,16,0,0,0,360.28,80a13.77,13.77,0,0,0-1.65,6.67A12.08,12.08,0,0,0,360,92.77a10.6,10.6,0,0,0,3.35,3.58,17.08,17.08,0,0,0,4.35,2l4.49,1.32c2.16.74,4.38,1.42,6.67,2s4.52,1.13,6.81,1.64,4.84,1.1,7.48,1.78a72.92,72.92,0,0,1,7.77,2.45,46,46,0,0,1,7.29,3.58,28,28,0,0,1,6.32,5.29,16.49,16.49,0,0,1,2.58,4.22,30.73,30.73,0,0,1,1.45,4.74,30.08,30.08,0,0,1,.62,4.68c.09,1.49.13,2.84.13,4a19.58,19.58,0,0,1-3.45,11,35.7,35.7,0,0,1-9,9.06,45.48,45.48,0,0,1-12.16,6.16,40.31,40.31,0,0,1-13.09,2.29,34.24,34.24,0,0,1-9.71-1.13,35.74,35.74,0,0,1-6.26-2.55c-1.71-.9-3.29-1.74-4.71-2.51a11.19,11.19,0,0,0-5.16-1.13,7.22,7.22,0,0,0-4.74,1.9,16.89,16.89,0,0,0-4,5.42h-4.93l11.48-21.67h4.29a64.68,64.68,0,0,0,3.77,8.42,17.28,17.28,0,0,0,4.62,5.48,16.52,16.52,0,0,0,6.48,3,40.43,40.43,0,0,0,9.32.9,25.93,25.93,0,0,0,9.84-1.71,20.56,20.56,0,0,0,6.87-4.42,17,17,0,0,0,4-6.16,20.85,20.85,0,0,0,1.26-7.13q0-6.28-2.71-10.16a21.45,21.45,0,0,0-6.74-6.22,32.64,32.64,0,0,0-8.67-3.61c-3.13-.78-6-1.52-8.58-2.2-2.78-.67-5.45-1.42-8-2.19s-5.07-1.68-7.52-2.58c-1.77-.68-3.58-1.45-5.41-2.29a20.63,20.63,0,0,1-5-3.26,17.49,17.49,0,0,1-3.8-5,16.09,16.09,0,0,1-1.49-7.35A20,20,0,0,1,349.57,83a35.57,35.57,0,0,1,8.84-9,43.61,43.61,0,0,1,11.38-5.83A35.35,35.35,0,0,1,381.08,66a33.09,33.09,0,0,1,9.45,1.13,37.5,37.5,0,0,1,6.32,2.55l4.84,2.51a11.54,11.54,0,0,0,5.22,1.13c3.2,0,6.1-2.45,8.71-7.32h4.9Z"/><path class="cls-1" d="M460.23,71.09a18.26,18.26,0,0,0-6,.94c-1.91.61-2.84,1.58-2.84,2.84v31.51h35.93V74.87a2.29,2.29,0,0,0-.84-1.65A5.72,5.72,0,0,0,484.41,72a19.6,19.6,0,0,0-2.77-.71,17.6,17.6,0,0,0-2.77-.23v-3.8h34.67v3.8a18.15,18.15,0,0,0-6.07.94c-1.83.61-2.77,1.58-2.77,2.84V152.5a3.12,3.12,0,0,0,.94,2.22,9.17,9.17,0,0,0,2.29,1.61,11.26,11.26,0,0,0,2.9,1.1,12.73,12.73,0,0,0,2.71.36v3.8H478.87v-3.8a10.81,10.81,0,0,0,2.32-.36,11.86,11.86,0,0,0,2.77-1.1,8.35,8.35,0,0,0,2.33-1.67,3.08,3.08,0,0,0,1-2.16V110.28H451.39V152.5a3.15,3.15,0,0,0,.93,2.22,9.55,9.55,0,0,0,2.29,1.61,11.62,11.62,0,0,0,2.87,1.1,13.4,13.4,0,0,0,2.75.36v3.8H425.68v-3.8a10.88,10.88,0,0,0,2.33-.36,12,12,0,0,0,2.77-1.1,8.14,8.14,0,0,0,2.26-1.67,3.12,3.12,0,0,0,1-2.16V74.87a2.29,2.29,0,0,0-.84-1.65,6,6,0,0,0-2-1.19,16.12,16.12,0,0,0-5.49-.94v-3.8h34.55Z"/><path class="cls-1" d="M507.38,158a26.34,26.34,0,0,0,3.84-.25,19.48,19.48,0,0,0,3.77-.88,11.1,11.1,0,0,0,3.22-1.7,6.14,6.14,0,0,0,2-2.58l34.67-85.34h4.68l34.64,85.34c.84,2.09,2.71,3.54,5.61,4.28a38.58,38.58,0,0,0,9.64,1.13v3.65h-45.6V158a21.14,21.14,0,0,0,7-1.13q3.2-1.11,3.19-3.28a3.07,3.07,0,0,0-.26-1l-2.9-6.94a15.65,15.65,0,0,0-2.51-3.9c-1.17-1.42-3.23-2.48-6.16-3.16a53.26,53.26,0,0,0-13-1.65,47.24,47.24,0,0,0-6.36.45,56.21,56.21,0,0,0-6.12,1.2,12.83,12.83,0,0,0-5.49,3.35c-1.45,1.55-2.19,2.74-2.19,3.58l-2.9,7.07a4.4,4.4,0,0,0-.26,1.12,2.32,2.32,0,0,0,1,1.91,8.89,8.89,0,0,0,2.45,1.32,15,15,0,0,0,3.26.81,20.72,20.72,0,0,0,3.29.25v3.65H507.38Zm25.32-21.41a50.1,50.1,0,0,1,8.45-2.52,41.72,41.72,0,0,1,8.7-.9,41.25,41.25,0,0,1,8.68.9,57.16,57.16,0,0,1,8.71,2.52q-4.54-11.08-8.65-21.32T550,94Z"/><path class="cls-1" d="M647.67,71.09a18.3,18.3,0,0,0-6,.94c-1.9.61-2.83,1.58-2.83,2.84v31.51h35.92V74.87a2.32,2.32,0,0,0-.83-1.65A5.72,5.72,0,0,0,671.86,72a20,20,0,0,0-2.77-.71,17.72,17.72,0,0,0-2.78-.23v-3.8H701v3.8a18.13,18.13,0,0,0-6.06.94c-1.84.61-2.77,1.58-2.77,2.84V152.5a3.15,3.15,0,0,0,.93,2.22,9.55,9.55,0,0,0,2.29,1.61,11.33,11.33,0,0,0,2.91,1.1,12.73,12.73,0,0,0,2.7.36v3.8H666.31v-3.8a10.88,10.88,0,0,0,2.33-.36,12,12,0,0,0,2.77-1.1,8.3,8.3,0,0,0,2.32-1.67,3,3,0,0,0,1-2.16V110.28H638.84V152.5a3.15,3.15,0,0,0,.93,2.22,9.55,9.55,0,0,0,2.29,1.61,11.62,11.62,0,0,0,2.87,1.1,13.4,13.4,0,0,0,2.74.36v3.8H613.13v-3.8a10.72,10.72,0,0,0,2.32-.36,11.93,11.93,0,0,0,2.78-1.1,8,8,0,0,0,2.25-1.67,3.08,3.08,0,0,0,1-2.16V74.87a2.29,2.29,0,0,0-.84-1.65,5.84,5.84,0,0,0-2-1.19,16.11,16.11,0,0,0-5.48-.94v-3.8h34.54Z"/><path class="cls-1" d="M370.47,299.69v38.54a1.12,1.12,0,0,0,.35.81,3.7,3.7,0,0,0,.94.55,5.06,5.06,0,0,0,1.26.32,8.66,8.66,0,0,0,1.32.1v1.74H357.6V340a8.87,8.87,0,0,0,1.29-.1,5.67,5.67,0,0,0,1.29-.32,4.59,4.59,0,0,0,1-.55,1.12,1.12,0,0,0,.35-.81V299.69h-7.41a6.94,6.94,0,0,0-2.39.45A22.26,22.26,0,0,0,349,301.4a27,27,0,0,0-2.71,1.84,23,23,0,0,0-2.45,2.23l-1.71-1.33,6.61-8.28,2.52.12a.84.84,0,0,0-.29.52c0,.42.32.74,1,1a5.67,5.67,0,0,0,2.33.42h23.38a5.7,5.7,0,0,0,2.29-.42c.64-.26,1-.58,1-1a.77.77,0,0,0-.26-.52l2.48-.12,6.68,8.28-1.77,1.33a18.76,18.76,0,0,0-2.39-2.16,19.89,19.89,0,0,0-2.74-1.84,22.08,22.08,0,0,0-2.74-1.29,6.84,6.84,0,0,0-2.39-.49Z"/><path class="cls-1" d="M384,331.43v-4.26a7.18,7.18,0,0,0-.13-1.26,9.41,9.41,0,0,0-.48-1.74,5.48,5.48,0,0,0-.84-1.51,1.5,1.5,0,0,0-1.23-.65,4.54,4.54,0,0,0-2.54,1v-1.55l11-8.54h1.71v1.8a10.49,10.49,0,0,1,6-1.8,13,13,0,0,1,4,.67,13.71,13.71,0,0,1,3.78,1.91,10,10,0,0,1,2.77,3,7.43,7.43,0,0,1,1.1,3.93,5.4,5.4,0,0,1-.39,2.06,5.28,5.28,0,0,1-1.06,1.68,5.41,5.41,0,0,1-1.55,1.1,4,4,0,0,1-1.81.42,3.42,3.42,0,0,1-2.93-1.29,7.87,7.87,0,0,1-1.45-3.07,22.1,22.1,0,0,1-.59-3.71,26.31,26.31,0,0,0-.38-3.12,2.53,2.53,0,0,0-2.81-2.07c-2.42,0-3.8,1.45-4.16,4.36a57.61,57.61,0,0,0-.51,7v5.68a22.73,22.73,0,0,0,.25,3.84,6.72,6.72,0,0,0,.94,2.67,3.87,3.87,0,0,0,1.84,1.55,8.07,8.07,0,0,0,3.06.52v1.74H378.08V340c2.29,0,3.84-.71,4.65-2.1S384,334.36,384,331.43Z"/><path class="cls-1" d="M437.46,331.43c0,2.93.38,5.09,1.19,6.48s2.35,2.1,4.64,2.1v1.74c-5.64,0-9.32-.71-11-2.1a1.76,1.76,0,0,0-.39-.06h-.39a2.09,2.09,0,0,0-1.42.42c-.35.26-.8.55-1.38.9a11.88,11.88,0,0,1-2.58.9,23.78,23.78,0,0,1-5,.42,14.09,14.09,0,0,1-4.77-.67,7.44,7.44,0,0,1-2.84-1.78,5.83,5.83,0,0,1-1.38-2.45,10.13,10.13,0,0,1-.39-2.74,8.84,8.84,0,0,1,.35-2.26,8.2,8.2,0,0,1,3.1-4.32,8.5,8.5,0,0,1,2.94-1.32,63.41,63.41,0,0,1,8.25-1.58q3.11-.35,3.1-5.52a5.74,5.74,0,0,0-.32-1.87,6.87,6.87,0,0,0-1-1.68,5.13,5.13,0,0,0-1.32-1.16,3.21,3.21,0,0,0-1.58-.45,2.51,2.51,0,0,0-2.2.94,5.94,5.94,0,0,0-.93,2.25,6.18,6.18,0,0,1-1.94,3.52,4.37,4.37,0,0,1-2.8,1.1,4.12,4.12,0,0,1-2.55-.87,2.7,2.7,0,0,1-1.13-2.29,3.39,3.39,0,0,1,.9-2.16,8.86,8.86,0,0,1,2.36-2,14.52,14.52,0,0,1,3.25-1.46,13.71,13.71,0,0,1,3.75-.54,11,11,0,0,1,5.16,1.29,16,16,0,0,1,7.22,7.9,13,13,0,0,1,1.1,5.06Zm-7.52-6.77A3.82,3.82,0,0,1,428.2,326a12.57,12.57,0,0,1-2.29.77c-.84.2-1.68.39-2.52.55a10.8,10.8,0,0,0-2.25.77,4.69,4.69,0,0,0-1.62,1.33,3.47,3.47,0,0,0-.64,2.29,12.51,12.51,0,0,0,.55,4,9,9,0,0,0,1.38,2.77,4.78,4.78,0,0,0,1.78,1.58,3.58,3.58,0,0,0,1.77.52,4.32,4.32,0,0,0,2.07-.52,6.43,6.43,0,0,0,3.51-5.64Z"/><path class="cls-1" d="M471.55,295.05v36.38a32.51,32.51,0,0,0,.19,3.8,6.73,6.73,0,0,0,.84,2.65,4.09,4.09,0,0,0,1.87,1.58,7.74,7.74,0,0,0,3.13.55v1.74h-5.74a1.71,1.71,0,0,0-.39,0,1.71,1.71,0,0,1-.39,0c-.45,0-1,0-1.45,0a6.2,6.2,0,0,1-1.51-.29,4.75,4.75,0,0,1-1.42-.84,4.46,4.46,0,0,1-1.29-1.64,11.09,11.09,0,0,1-7.81,3.22,10,10,0,0,1-4.87-1.19,12.38,12.38,0,0,1-3.93-3.16,14.29,14.29,0,0,1-2.62-4.65,17.33,17.33,0,0,1-.93-5.67,16,16,0,0,1,1-5.61,14.71,14.71,0,0,1,2.64-4.65,12.92,12.92,0,0,1,3.9-3.22,10.44,10.44,0,0,1,4.84-1.16,7,7,0,0,1,1.68.22,10.44,10.44,0,0,1,1.45.58l1.13.55a1.94,1.94,0,0,0,.84.23.69.69,0,0,0,.61-.33,2.69,2.69,0,0,0,.45-.71,3.12,3.12,0,0,0,.23-.87,3.07,3.07,0,0,0,.06-.67v-2.65a7.74,7.74,0,0,0-.13-1.26,8.43,8.43,0,0,0-.48-1.77,5.29,5.29,0,0,0-.84-1.52,1.5,1.5,0,0,0-1.23-.64,4.84,4.84,0,0,0-2.54,1V303.6l11-8.55ZM464,328.69c0-1,0-2,0-2.91a18.15,18.15,0,0,0-.23-2.67,17.07,17.07,0,0,0-.64-2.61,19,19,0,0,0-1.19-2.71,9.8,9.8,0,0,0-1.88-2.52,3.35,3.35,0,0,0-2.41-1,3.18,3.18,0,0,0-3,2.29c-.65,1.52-1,4-1,7.55a43.9,43.9,0,0,0,.35,5.74,31.9,31.9,0,0,0,1.1,5.19,12.61,12.61,0,0,0,1.74,3.77,3,3,0,0,0,2.42,1.49,3.64,3.64,0,0,0,2.32-.74,4.77,4.77,0,0,0,1.45-2,8.9,8.9,0,0,0,.78-2.81,27.37,27.37,0,0,0,.19-3.35Z"/><path class="cls-1" d="M490,312.92a11.76,11.76,0,0,1,4.1.71,12.68,12.68,0,0,1,3.64,2,14.27,14.27,0,0,1,2.94,3,17,17,0,0,1,2,3.74,4.58,4.58,0,0,1,.22,1.52,5.07,5.07,0,0,1-.19,1.42,2,2,0,0,1-1,1.06,7.28,7.28,0,0,1-2.39.68,32,32,0,0,1-4.38.22h-9.71a22.21,22.21,0,0,0,2.42,8.58,5.35,5.35,0,0,0,4.77,3,9.37,9.37,0,0,0,2.87-.45,11.44,11.44,0,0,0,2.45-1.22,9.17,9.17,0,0,0,1.91-1.74,8.07,8.07,0,0,0,1.26-2l1.12.87a.65.65,0,0,1-.12.29,2.77,2.77,0,0,0-.1.26,14.51,14.51,0,0,1-4.87,5.35,12.4,12.4,0,0,1-7,2,12.06,12.06,0,0,1-5.32-1.19,13.93,13.93,0,0,1-4.32-3.16,14.75,14.75,0,0,1-2.9-4.65,15.13,15.13,0,0,1-1.07-5.67,14.28,14.28,0,0,1,1.1-5.61,14.47,14.47,0,0,1,2.93-4.65,14.11,14.11,0,0,1,4.29-3.22A12.24,12.24,0,0,1,490,312.92ZM485,325.75h6.51a3.6,3.6,0,0,0,1.65-.32,1.45,1.45,0,0,0,.64-1.42,5.09,5.09,0,0,0-.06-.64,4.58,4.58,0,0,0-.2-.84,21.35,21.35,0,0,0-2.58-5.71c-1-1.45-2-2.19-3-2.19s-1.71.71-2.29,2.12a15.37,15.37,0,0,0-.87,5.68A29.79,29.79,0,0,0,485,325.75Z"/><path class="cls-1" d="M510.34,330.14a4,4,0,0,1,1.91.51,5,5,0,0,1,1.58,1.36,6.19,6.19,0,0,1,1,2,8.11,8.11,0,0,1,0,5,7.14,7.14,0,0,1-1,2,5.41,5.41,0,0,1-1.58,1.32,3.87,3.87,0,0,1-3.84,0,5.41,5.41,0,0,1-1.58-1.32,7.14,7.14,0,0,1-1-2,8.11,8.11,0,0,1,0-5,6.19,6.19,0,0,1,1-2,5,5,0,0,1,1.58-1.36A4,4,0,0,1,510.34,330.14Z"/><path class="cls-1" d="M531.57,312.92a9.43,9.43,0,0,1,2.25.25c.65.2,1.23.39,1.78.62a13.44,13.44,0,0,0,1.61.61,5.21,5.21,0,0,0,1.77.29c1.62,0,2.68-.48,3.2-1.48h1.74l-3.87,10.25h-1.36a22,22,0,0,0-1-2.84,18.61,18.61,0,0,0-1.51-3,10.2,10.2,0,0,0-2-2.42,3.38,3.38,0,0,0-2.29-1,3.79,3.79,0,0,0-2.29.67,5.22,5.22,0,0,0-1.55,1.91,10.43,10.43,0,0,0-.8,2.87,24.86,24.86,0,0,0-.23,3.58c0,5.12.68,9,2,11.64s3.13,3.93,5.29,3.93a9.37,9.37,0,0,0,2.87-.45,11.44,11.44,0,0,0,2.45-1.22,9.17,9.17,0,0,0,1.91-1.74,7.74,7.74,0,0,0,1.25-2l1.13.87a9,9,0,0,1-1.93,3.19,13.87,13.87,0,0,1-3,2.52,15.83,15.83,0,0,1-3.55,1.61,11.26,11.26,0,0,1-3.61.61,12.44,12.44,0,0,1-5.48-1.19,13.68,13.68,0,0,1-4.42-3.16,14.4,14.4,0,0,1-3-4.65,14.57,14.57,0,0,1-1.09-5.67,15.17,15.17,0,0,1,4-10.26,13.87,13.87,0,0,1,4.29-3.22A12.2,12.2,0,0,1,531.57,312.92Z"/><path class="cls-1" d="M560,312.92a12,12,0,0,1,5.26,1.16,14.74,14.74,0,0,1,4.35,3.22,15.18,15.18,0,0,1,3,4.68,15.37,15.37,0,0,1,0,11.22,16.46,16.46,0,0,1-2.94,4.65,13.25,13.25,0,0,1-4.35,3.19,12.35,12.35,0,0,1-10.58,0,13.6,13.6,0,0,1-4.35-3.16,14.77,14.77,0,0,1-2.91-4.65,15.12,15.12,0,0,1-1.06-5.67,14.84,14.84,0,0,1,1.1-5.61,15,15,0,0,1,2.93-4.65,14.48,14.48,0,0,1,4.29-3.22A12.24,12.24,0,0,1,560,312.92Zm-1.64,1.71H558c-.9,0-1.64.71-2.22,2.16a15.45,15.45,0,0,0-.88,5.74,33.6,33.6,0,0,0,.65,6.45,34.9,34.9,0,0,0,1.64,5.84,15.43,15.43,0,0,0,2.29,4.22,3.49,3.49,0,0,0,2.58,1.61c.84,0,1.58-.74,2.17-2.19a15.57,15.57,0,0,0,.87-5.74,30.87,30.87,0,0,0-.62-6.16,37.25,37.25,0,0,0-1.58-5.74,19.61,19.61,0,0,0-2.16-4.26A4.3,4.3,0,0,0,558.34,314.63Z"/><path class="cls-1" d="M597.71,331.43V320a5.58,5.58,0,0,0-1.41-4,4.59,4.59,0,0,0-3.39-1.51,4.87,4.87,0,0,0-2.36.54A4.8,4.8,0,0,0,589,316.5a6.23,6.23,0,0,0-.78,2,10.66,10.66,0,0,0-.22,2.29v10.64a15.94,15.94,0,0,0,.84,5.93,4.13,4.13,0,0,0,3.54,2.45v1.94H574.62V340c2.29,0,3.81-.71,4.65-2.1s1.22-3.55,1.22-6.48v-4.26a7.18,7.18,0,0,0-.13-1.26,11.28,11.28,0,0,0-.48-1.74,5.23,5.23,0,0,0-.84-1.51,1.5,1.5,0,0,0-1.26-.65,4.38,4.38,0,0,0-2.51,1v-1.55l11-8.54H588c0,.71.26,1.06.74,1.06a2.86,2.86,0,0,0,1-.19c.38-.1.8-.23,1.25-.33s1-.25,1.49-.35a5.84,5.84,0,0,1,1.51-.19c3.58,0,6.42,1,8.49,2.87a7.23,7.23,0,0,1,1.9-1.36,13.43,13.43,0,0,1,2.16-.84,15.61,15.61,0,0,1,2.1-.45,13.68,13.68,0,0,1,1.64-.16,11.59,11.59,0,0,1,5,1.1,14.85,14.85,0,0,1,4.16,2.93,15.51,15.51,0,0,1,2.9,4.23,13.51,13.51,0,0,1,1.29,4.93,12.88,12.88,0,0,1,.07,2.45v2.81a24.91,24.91,0,0,0,.26,3.84,7.22,7.22,0,0,0,.93,2.67,3.81,3.81,0,0,0,1.87,1.55,8,8,0,0,0,3,.52v1.74c-.55,0-1.06.06-1.58.06h-1.45a26.9,26.9,0,0,1-6.51-.61,8.13,8.13,0,0,1-3.68-1.81,5.11,5.11,0,0,1-1.61-2.77,15.45,15.45,0,0,1-.39-3.64,24.52,24.52,0,0,1,.16-2.68,20.53,20.53,0,0,0,.19-2.84,25.42,25.42,0,0,0-.35-3.9,24.19,24.19,0,0,0-1.1-4.16,11.18,11.18,0,0,0-1.83-3.32,3.3,3.3,0,0,0-2.58-1.36,3.13,3.13,0,0,0-1.84.71A5.29,5.29,0,0,0,606,317a7.49,7.49,0,0,0-.55,1.93,13.74,13.74,0,0,0-.16,1.88v10.64a21.38,21.38,0,0,0,.29,3.84,6.72,6.72,0,0,0,.93,2.67,3.92,3.92,0,0,0,1.84,1.55,8,8,0,0,0,3,.52v1.74H593.49v-1.94a4.05,4.05,0,0,0,3.35-2.45A15.85,15.85,0,0,0,597.71,331.43Z"/><path class="cls-1" d="M493.28,317.87a1.44,1.44,0,0,0,0-2.88,1.44,1.44,0,0,0,0,2.88Z"/><path class="cls-1" d="M220,75.35c0-37.2-67.18-67.17-67.18-67.17s-67.17,30-67.17,67.17a67.05,67.05,0,0,0-67.17,67.17v123.8a67,67,0,0,0,67.17,67.17c0,37.2,67.17,67.18,67.17,67.18s67.18-30,67.18-67.18a67,67,0,0,0,67.17-67.17V142.52A67.05,67.05,0,0,0,220,75.35Zm50.4,188.33c0,35.61-26.24,64.32-58.79,64.32,0,35.61-58.79,64.31-58.79,64.31S94,363.61,94,328c-32.55,0-58.79-28.71-58.79-64.32V145.16c0-35.61,26.24-64.31,58.79-64.31,0-35.61,58.78-64.32,58.78-64.32S211.6,45.24,211.6,80.85c32.55,0,58.79,28.7,58.79,64.31Z"/><path class="cls-1" d="M209.42,171a3,3,0,0,1-1.6-.48,2.89,2.89,0,0,1-1.25-2.8l3.91-44.52,1.13-11.82c.47-8.32-6-11.29-10.89-12.81a169.48,169.48,0,0,0-50.14-7.38,171.76,171.76,0,0,0-43.19,5.4c-7.49,2-10.9,6.18-10.13,12.58,0,.06,0,.11,0,.16l1.9,30.16a2.88,2.88,0,0,1-5.75.37l-1.9-30.08C90.45,100.51,95.7,93.68,106,91a178,178,0,0,1,44.63-5.58,175.23,175.23,0,0,1,51.84,7.64c13,4,15.32,12.4,14.93,18.71a.38.38,0,0,1,0,.1l-1.13,11.85-3.92,44.64a2.8,2.8,0,0,1-.59,1.51A2.86,2.86,0,0,1,209.42,171Z"/><path class="cls-1" d="M213.34,126.34a2.9,2.9,0,0,1-1-.2,168.07,168.07,0,0,0-59.77-10.71,173.2,173.2,0,0,0-37.33,4A2.88,2.88,0,0,1,114,113.8a179.58,179.58,0,0,1,38.57-4.13,173.92,173.92,0,0,1,61.84,11.1,2.88,2.88,0,0,1-1,5.57Z"/><path class="cls-1" d="M209.41,171.16a2.84,2.84,0,0,1-1-.18l-.09,0-.1,0a167.19,167.19,0,0,0-55.69-9.22,167.09,167.09,0,0,0-55.68,9.22l-.13,0a2.89,2.89,0,0,1-3.65-1.69,2.84,2.84,0,0,1,1.63-3.7l.32-.12a173,173,0,0,1,57.51-9.51,172.89,172.89,0,0,1,57.52,9.52h0l.32.11a2.88,2.88,0,0,1-1,5.58Z"/><path class="cls-1" d="M95.9,171.08a3.08,3.08,0,0,1-.94-.15l-.19-.07a2.83,2.83,0,0,1-1.9-2.46l-2.34-26.53a2.86,2.86,0,0,1,1.86-3c1.63-.6,3.25-1.18,4.83-1.7,7.63-2.56,22.88-6.15,40.71-7.87,13.89-1.33,33.54-1.86,48.32,3.19a2.88,2.88,0,1,1-1.86,5.45c-24.64-8.42-68.44-1-85.35,4.69l-2.58.89L98.52,167a2.87,2.87,0,0,1,.12,2.16A2.9,2.9,0,0,1,95.9,171.08Z"/><path class="cls-1" d="M208.08,231.79A2.88,2.88,0,0,1,208,226c3.06-.12,8.85-16.17,8.85-24.54,0-5.34-3.93-9.73-8.77-9.79a2.88,2.88,0,0,1,0-5.76h0c8,.09,14.46,7.07,14.46,15.55,0,5.89-4.62,29.91-14.38,30.3Z"/><path class="cls-1" d="M97.24,231.79h-.11c-9.76-.39-14.38-24.41-14.38-30.3,0-8.48,6.48-15.46,14.46-15.55h0a2.88,2.88,0,0,1,0,5.76c-4.83.06-8.76,4.45-8.76,9.79,0,8.37,5.78,24.42,8.84,24.54a2.88,2.88,0,0,1-.11,5.76Z"/><path class="cls-1" d="M159.44,207.32a2.86,2.86,0,0,1-1.51-.43,2.9,2.9,0,0,1-.94-4,23.89,23.89,0,0,1,24.8-10.9,23.59,23.59,0,0,1,9.63,4.2,2.88,2.88,0,0,1-3.4,4.65,17.92,17.92,0,0,0-7.31-3.19A18.1,18.1,0,0,0,161.89,206,2.88,2.88,0,0,1,159.44,207.32Z"/><path class="cls-1" d="M145.59,204.44a2.84,2.84,0,0,1-2.17-1,17.95,17.95,0,0,0-24.21-2.72,2.88,2.88,0,0,1-3.42-4.63A23.7,23.7,0,0,1,142.34,195a28.69,28.69,0,0,0-2-6.83,45.84,45.84,0,0,0-6.56-.47A41.14,41.14,0,0,0,114.93,192a2.88,2.88,0,1,1-2.68-5.09,46.25,46.25,0,0,1,21.51-5,50.88,50.88,0,0,1,9,.8,2.83,2.83,0,0,1,2.05,1.53,35,35,0,0,1,3.67,15.8c0,.55,0,1.09,0,1.63a2.89,2.89,0,0,1-1.95,2.56A3,3,0,0,1,145.59,204.44Z"/><path class="cls-1" d="M193.43,191.71a2.86,2.86,0,0,1-1.23-.28,41.35,41.35,0,0,0-17.59-3.7,43.8,43.8,0,0,0-11.44,1.47,2.88,2.88,0,0,1-1.5-5.56A49.68,49.68,0,0,1,174.61,182a47.08,47.08,0,0,1,20.06,4.26,2.88,2.88,0,0,1-1.24,5.48Z"/><circle class="cls-1" cx="176.37" cy="198.41" r="6.04"/><circle class="cls-1" cx="130.66" cy="198.28" r="6.04"/><path class="cls-1" d="M159.22,239.54a2.89,2.89,0,0,1-2.87-2.61l-.1-1.07a109,109,0,0,1-.71-12.7,174.94,174.94,0,0,1,1-19,171.68,171.68,0,0,1,3-18.33,2.88,2.88,0,0,1,5.62,1.25,162.65,162.65,0,0,0-2.92,17.71,168.41,168.41,0,0,0-1,18.41,104.82,104.82,0,0,0,.68,12.15l.11,1.07a2.88,2.88,0,0,1-2.6,3.14Z"/><path class="cls-1" d="M152.66,335.5c-23.73,0-42.76-14.87-48.48-37.9a343.49,343.49,0,0,1-7.82-44,396.75,396.75,0,0,1-2.5-44.82A402.54,402.54,0,0,1,96,166.91a2.88,2.88,0,0,1,5.75.27c0,.1,0,.21,0,.31a396.76,396.76,0,0,0-2.15,41.33A392.27,392.27,0,0,0,102.08,253a338.9,338.9,0,0,0,7.69,43.22c6.14,24.75,27,33.53,42.89,33.53s36.75-8.78,42.89-33.52A337.68,337.68,0,0,0,203.24,253a391.64,391.64,0,0,0,2.46-44.17,392.65,392.65,0,0,0-2.15-41.25,2.88,2.88,0,1,1,5.73-.61,398.85,398.85,0,0,1,2.18,41.86A401,401,0,0,1,209,253.64a345,345,0,0,1-7.83,44C195.43,320.63,176.4,335.5,152.66,335.5Zm.09-63.34h-.18a131.35,131.35,0,0,1-17-1.12,2.88,2.88,0,0,1-2.5-2.86v-4.91a5.13,5.13,0,0,1,5.59-5.1c4.57.43,9.26.65,13.94.65h.22c4.69,0,9.38-.22,13.94-.65a5.11,5.11,0,0,1,5.59,5.1v4.91a2.89,2.89,0,0,1-2.5,2.86A131.12,131.12,0,0,1,152.75,272.16Zm16.67-4h0Zm-30.64-2.55a124.69,124.69,0,0,0,13.79.77h.18a124.56,124.56,0,0,0,13.79-.77V264c-4.52.41-9.14.61-13.77.61h-.22c-4.62,0-9.25-.2-13.77-.61Z"/><path class="cls-1" d="M201.78,165.81l.68,13.38c.08,4.47.14,8.94,0,13.42a238.45,238.45,0,0,1-2.07,26.8,153.79,153.79,0,0,1-5.81,26.45,76.31,76.31,0,0,1-5.33,12.73,41.49,41.49,0,0,1-3.89,6,23.67,23.67,0,0,1-5.53,5.18h0a2.81,2.81,0,0,1-3.9-.75,2.84,2.84,0,0,1-.48-1.58V256l0-.47a7.27,7.27,0,0,0-.13-.92,6.37,6.37,0,0,0-.63-1.74,6.91,6.91,0,0,0-2.52-2.68,7.13,7.13,0,0,0-1.71-.72,10.69,10.69,0,0,0-2.1-.29c-1.74-.14-3.47-.26-5.21-.35-3.48-.19-7-.28-10.45-.28s-7,.09-10.45.28c-1.74.09-3.48.21-5.22.35a10.69,10.69,0,0,0-2.1.29,6.6,6.6,0,0,0-1.71.72,6.79,6.79,0,0,0-3.16,4.41,5.94,5.94,0,0,0-.13.93l0,.46v11.26h0v.08a2.84,2.84,0,0,1-2.83,2.84,2.8,2.8,0,0,1-1.55-.46,23.88,23.88,0,0,1-5.53-5.18,41.36,41.36,0,0,1-3.9-6,75,75,0,0,1-5.33-12.75,154.67,154.67,0,0,1-5.82-26.46,239,239,0,0,1-2.06-26.83c-.13-4.47-.08-9,0-13.42l.67-13.39a2.24,2.24,0,0,1,4.47.19v0l-.5,13.18c0,4.39,0,8.79.14,13.18A234.82,234.82,0,0,0,110,218.55,149.54,149.54,0,0,0,115.85,244a71.7,71.7,0,0,0,5.05,11.76c2,3.63,4.54,7.08,7.59,9l-4.38,2.46h0V256l0-.86a13.91,13.91,0,0,1,.24-1.7,13.14,13.14,0,0,1,1.17-3.23,12.75,12.75,0,0,1,4.68-4.93,13,13,0,0,1,3.16-1.34,17.36,17.36,0,0,1,3.14-.46q2.69-.22,5.37-.36c3.58-.2,7.17-.29,10.76-.29s7.17.09,10.75.29q2.7.13,5.37.36a16.5,16.5,0,0,1,3.14.47,12.58,12.58,0,0,1,9,9.51,13.91,13.91,0,0,1,.24,1.7l0,.85v11.29l-4.39-2.46h0c3.06-2,5.59-5.4,7.63-9a70.86,70.86,0,0,0,5.11-11.74,149.57,149.57,0,0,0,6-25.45A237.37,237.37,0,0,0,198,192.38c.19-4.39.21-8.79.2-13.19L197.75,166v0a2,2,0,0,1,4-.17Z"/><path class="cls-1" d="M152.54,240.79a20.35,20.35,0,0,1-11.66-3.57,2.88,2.88,0,1,1,3.32-4.71,14.57,14.57,0,0,0,8.34,2.52,15,15,0,0,0,5.61-1.05,2.88,2.88,0,1,1,2.13,5.35A20.72,20.72,0,0,1,152.54,240.79Z"/><path class="cls-1" d="M39.49,307.92a2.88,2.88,0,0,1-1.61-5.26c17.11-11.58,39.53-20.38,64.83-25.44a2.88,2.88,0,1,1,1.13,5.64c-24.56,4.92-46.25,13.42-62.73,24.57A2.93,2.93,0,0,1,39.49,307.92Z"/><path class="cls-1" d="M267.14,307.53a2.86,2.86,0,0,1-1.6-.49c-16.85-11.25-39-19.73-64-24.53a2.88,2.88,0,1,1,1.08-5.65c25.74,4.93,48.59,13.71,66.08,25.39a2.89,2.89,0,0,1-1.6,5.28Z"/></svg>